<?xml version="1.0" standalone="no"?>
<!DOCTYPE svg PUBLIC "-//W3C//DTD SVG 20010904//EN"
 "http://www.w3.org/TR/2001/REC-SVG-20010904/DTD/svg10.dtd">
<svg version="1.0" xmlns="http://www.w3.org/2000/svg"
 width="320.000000pt" height="198.000000pt" viewBox="0 0 320.000000 198.000000"
 preserveAspectRatio="xMidYMid meet">

<g transform="translate(0.000000,198.000000) scale(0.100000,-0.100000)"
fill="#000000" stroke="none">
<path d="M340 1787 c-68 -29 -139 -94 -157 -144 -21 -57 -31 -152 -21 -198 5
-22 22 -65 38 -96 21 -42 27 -67 25 -96 -4 -35 0 -43 25 -62 18 -13 46 -22 68
-22 20 -1 89 -2 152 -3 95 -2 123 1 163 17 46 19 47 20 47 66 0 29 8 59 21 81
81 132 69 292 -28 386 -76 72 -105 86 -195 91 -71 3 -91 0 -138 -20z m132 -29
c7 -15 4 -18 -19 -17 -15 0 -22 3 -15 6 6 2 12 17 13 31 0 16 3 21 6 12 3 -8
10 -23 15 -32z m-67 -18 c-3 -5 -12 -10 -18 -10 -7 0 -6 4 3 10 19 12 23 12
15 0z m-38 -16 c-3 -3 -12 -4 -19 -1 -8 3 -5 6 6 6 11 1 17 -2 13 -5z m-62
-34 c4 -6 3 -10 -2 -9 -21 4 -34 -2 -27 -13 4 -7 3 -8 -5 -4 -9 6 -9 11 0 22
14 17 25 18 34 4z m177 -14 c8 5 9 1 5 -10 -4 -10 -7 -25 -7 -34 0 -12 -3 -13
-11 -5 -6 6 -18 9 -25 6 -8 -3 -14 1 -14 11 0 9 -4 16 -10 16 -18 0 -11 15 13
25 16 8 24 7 30 -2 5 -8 13 -10 19 -7z m173 -6 c-3 -5 -12 -10 -18 -10 -7 0
-6 4 3 10 19 12 23 12 15 0z m-75 -61 c0 -5 -7 -9 -15 -9 -15 0 -20 12 -9 23
8 8 24 -1 24 -14z m-230 1 c0 -5 -4 -10 -10 -10 -5 0 -10 5 -10 10 0 6 5 10
10 10 6 0 10 -4 10 -10z m-120 -65 c0 -9 -7 -18 -15 -21 -8 -3 -17 -14 -20
-25 -8 -23 -25 -25 -25 -3 0 8 4 13 9 10 5 -4 15 7 23 24 14 32 28 40 28 15z
m190 5 c0 -5 -4 -10 -10 -10 -5 0 -10 5 -10 10 0 6 5 10 10 10 6 0 10 -4 10
-10z m90 0 c0 -5 -4 -10 -10 -10 -5 0 -10 5 -10 10 0 6 5 10 10 10 6 0 10 -4
10 -10z m221 -64 c10 -20 10 -21 -5 -2 -9 11 -16 16 -16 10 0 -11 -20 18 -20
30 0 13 30 -15 41 -38z m-211 -46 c0 -6 -28 -10 -65 -10 -37 0 -65 4 -65 10 0
6 28 10 65 10 37 0 65 -4 65 -10z m163 -35 c-3 -9 -8 -14 -10 -11 -3 3 -2 9 2
15 9 16 15 13 8 -4z m-427 -30 c-3 -13 -9 -31 -13 -40 -8 -13 -11 -12 -22 11
-11 24 -10 26 3 14 14 -10 16 -9 16 7 0 18 8 33 17 33 2 0 1 -11 -1 -25z m415
-49 c-6 -13 -20 23 -20 54 0 21 2 20 13 -10 7 -19 10 -39 7 -44z m-291 54 c0
-23 -80 -26 -88 -2 -2 8 10 12 42 12 25 0 46 -4 46 -10z m120 1 c0 -14 -29
-21 -36 -10 -4 7 -10 7 -16 1 -12 -12 -38 -5 -38 9 0 5 20 9 45 9 25 0 45 -4
45 -9z m118 -3 c-3 -8 -21 -13 -43 -13 -22 0 -40 5 -42 13 -3 8 9 12 42 12 33
0 45 -4 43 -12z m-148 -64 c0 5 9 1 20 -9 23 -20 28 -44 6 -26 -11 9 -20 10
-35 1 -15 -8 -27 -8 -41 0 -26 14 -25 17 7 34 21 10 30 11 35 3 4 -7 8 -8 8
-3z m-10 -68 c0 -2 -7 -7 -16 -10 -8 -3 -12 -2 -9 4 6 10 25 14 25 6z m22 -29
c-12 -6 -25 -7 -29 -3 -11 10 18 25 35 18 13 -4 11 -8 -6 -15z m-52 3 c8 -5
11 -10 5 -10 -5 0 -17 5 -25 10 -8 5 -10 10 -5 10 6 0 17 -5 25 -10z"/>
<path d="M422 1301 c-11 -7 -10 -9 3 -14 10 -4 14 -3 9 4 -4 8 1 9 17 4 19 -5
21 -4 9 4 -18 13 -21 13 -38 2z"/>
<path d="M1147 1783 c-2 -5 -3 -16 -2 -25 2 -13 -3 -18 -20 -18 -13 0 -27 5
-30 10 -13 20 -25 -2 -25 -45 0 -48 12 -63 32 -42 7 8 20 12 30 9 14 -3 17
-12 13 -43 -4 -34 -2 -39 15 -39 17 0 20 7 20 40 0 29 4 40 15 40 8 0 15 5 15
10 0 6 -7 10 -15 10 -8 0 -15 9 -15 20 0 13 7 20 20 20 16 0 20 -7 20 -36 0
-28 4 -35 17 -32 12 2 18 14 18 41 2 38 -17 68 -30 47 -3 -5 -15 -10 -26 -10
-14 0 -19 7 -19 25 0 23 -23 35 -33 18z m1 -70 c-5 -26 -38 -29 -38 -4 0 15 6
21 21 21 14 0 19 -5 17 -17z"/>
<path d="M1350 1760 c-7 -16 -17 -30 -22 -30 -5 0 -6 -5 -3 -10 4 -6 11 -8 16
-5 5 4 9 -5 9 -19 0 -16 6 -26 15 -26 11 0 15 12 15 44 0 25 5 46 12 48 15 5
1 28 -16 28 -8 0 -19 -13 -26 -30z"/>
<path d="M1420 1765 c0 -14 -7 -28 -15 -31 -8 -4 -15 -11 -15 -16 0 -6 6 -8
14 -5 11 5 12 0 3 -24 -9 -24 -17 -29 -44 -29 -18 0 -33 -4 -33 -9 0 -5 16 -8
35 -7 32 3 35 1 35 -25 0 -37 27 -39 36 -4 5 21 12 25 45 25 21 0 39 5 39 10
0 6 -4 10 -10 10 -5 0 -10 7 -10 15 0 8 4 15 10 15 8 0 8 16 1 48 -1 2 -8 -4
-17 -12 -8 -9 -21 -16 -27 -16 -7 0 0 11 15 24 23 21 25 26 13 36 -12 10 -18
10 -30 0 -12 -10 -15 -10 -15 4 0 9 -7 16 -15 16 -9 0 -15 -9 -15 -25z m57
-100 c-11 -7 -25 -11 -33 -8 -22 8 -6 23 24 23 25 -1 26 -2 9 -15z"/>
<path d="M1908 1782 l-68 -3 0 -88 c0 -48 2 -90 5 -93 3 -3 24 4 46 15 26 12
43 16 47 10 10 -14 48 -33 66 -33 12 0 16 10 16 38 -1 31 -3 35 -13 21 -9 -12
-18 -14 -35 -8 -31 12 -29 39 4 39 15 0 23 4 19 10 -4 6 -12 10 -18 9 -24 -3
-37 1 -37 11 0 6 10 8 24 4 21 -5 24 -2 28 30 2 20 -1 37 -7 38 -5 2 -40 2
-77 0z m52 -28 c0 -8 -3 -15 -7 -15 -34 -6 -54 -5 -59 3 -3 4 -10 6 -15 3 -5
-4 -9 -2 -9 4 0 12 12 16 55 17 24 1 35 -3 35 -12z m-50 -43 c0 -5 -7 -11 -15
-15 -9 -3 -15 0 -15 9 0 8 7 15 15 15 8 0 15 -4 15 -9z m10 -51 c0 -15 -7 -20
-25 -20 -24 0 -34 18 -18 33 15 15 43 7 43 -13z"/>
<path d="M2130 1765 c0 -18 -5 -25 -20 -25 -11 0 -20 -4 -20 -9 0 -5 9 -7 20
-4 16 4 20 0 20 -20 0 -19 -7 -28 -27 -35 l-28 -10 34 -1 35 -1 -35 -36 c-32
-34 -33 -36 -9 -29 14 4 32 14 41 21 8 8 21 14 27 14 16 0 15 17 0 23 -9 4 -9
6 1 6 8 1 30 -15 48 -36 22 -24 37 -33 44 -26 15 15 0 41 -29 52 -26 9 -26 9
11 10 20 1 37 5 37 10 0 17 -20 23 -35 11 -12 -10 -16 -9 -21 4 -7 18 1 47 13
45 19 -3 33 2 33 12 0 5 -10 9 -22 7 -11 -2 -23 3 -25 10 -3 6 4 12 14 13 14
0 13 2 -5 10 -29 11 -42 4 -42 -22 0 -12 -7 -19 -17 -18 -11 0 -13 3 -6 6 9 3
10 10 3 24 -15 28 -40 24 -40 -6z m52 -87 c-6 -6 -11 -2 -15 11 -3 12 -1 19 4
15 5 -3 10 1 10 8 1 7 3 5 6 -6 3 -10 1 -22 -5 -28z"/>
<path d="M2365 1770 c-38 -18 -39 -19 -12 -19 18 -1 27 -6 24 -13 -2 -7 -11
-12 -21 -10 -9 2 -16 -2 -16 -8 0 -5 7 -10 15 -10 14 0 14 -4 0 -36 -20 -49
-19 -61 5 -39 20 18 20 17 20 -13 0 -22 5 -32 15 -32 10 0 15 10 15 30 0 33
20 37 32 8 8 -19 28 -25 28 -8 0 14 27 12 33 -2 3 -10 8 -10 16 -2 8 7 11 36
9 80 -3 69 -3 69 -30 66 -15 -1 -41 4 -57 13 -17 8 -31 15 -33 14 -2 0 -21 -9
-43 -19z m75 -20 c0 -5 -7 -10 -15 -10 -8 0 -15 5 -15 10 0 6 7 10 15 10 8 0
15 -4 15 -10z m60 -55 c0 -33 -4 -45 -15 -45 -11 0 -15 12 -15 45 0 33 4 45
15 45 11 0 15 -12 15 -45z m-60 7 c0 -5 -7 -9 -15 -9 -8 0 -15 4 -15 9 0 4 7
8 15 8 8 0 15 -4 15 -8z"/>
<path d="M2600 1785 c-1 0 -1 -43 -2 -95 -1 -88 0 -95 18 -92 10 2 42 3 69 3
28 0 59 -1 70 -3 18 -3 20 4 25 85 3 49 1 91 -4 94 -6 4 -92 8 -176 8z m105
-25 c-7 -12 -75 -10 -75 2 0 4 18 8 41 8 25 0 38 -4 34 -10z m-45 -40 c0 -11
-7 -20 -15 -20 -8 0 -15 9 -15 20 0 11 7 20 15 20 8 0 15 -9 15 -20z m83 1 c3
-15 -1 -18 -19 -17 -16 1 -24 7 -24 19 0 23 36 22 43 -2z m-83 -62 c0 -21 -1
-22 -24 -13 -12 5 -13 10 -5 25 12 23 29 16 29 -12z m90 -4 c0 -5 -5 -3 -10 5
-5 8 -10 20 -10 25 0 6 5 3 10 -5 5 -8 10 -19 10 -25z m-32 -32 c-15 -2 -42
-2 -60 0 -18 2 -6 4 27 4 33 0 48 -2 33 -4z"/>
<path d="M1646 1749 c-3 -17 -6 -42 -6 -55 0 -13 -15 -38 -34 -58 -41 -41 -25
-58 19 -20 15 13 32 24 37 24 4 0 7 3 7 8 -6 39 4 41 21 5 18 -41 27 -48 60
-43 25 3 23 6 -19 50 -34 35 -41 49 -41 81 0 31 -4 39 -19 39 -13 0 -20 -10
-25 -31z"/>
<path d="M1690 1606 c0 -2 8 -10 18 -17 15 -13 16 -12 3 4 -13 16 -21 21 -21
13z"/>
<path d="M975 1327 c0 -74 -4 -109 -14 -121 -8 -9 -11 -20 -7 -24 11 -10 46
37 53 70 3 15 11 28 17 28 6 0 4 5 -4 10 -11 7 -5 10 23 10 31 0 37 -3 37 -21
0 -19 -4 -21 -30 -15 l-30 6 0 -55 c0 -48 2 -55 20 -55 11 0 20 5 20 10 0 6
20 10 44 10 25 0 48 -4 51 -10 16 -25 33 -8 37 35 4 53 -5 66 -41 59 -22 -5
-27 -2 -28 15 -2 18 4 21 38 21 38 0 51 12 27 26 -6 4 -14 2 -16 -4 -6 -18
-52 -15 -52 3 0 8 5 15 11 15 5 0 7 5 4 10 -8 14 8 13 22 -1 21 -21 43 -2 43
36 0 38 -17 53 -47 40 -19 -8 -112 -8 -153 1 l-25 4 0 -103z m170 65 l-20 -5
20 -8 c13 -5 -5 -8 -51 -8 -56 -1 -71 2 -71 14 0 12 14 15 71 14 39 -1 62 -4
51 -7z m-65 -63 c0 -14 -7 -19 -30 -19 -23 0 -30 5 -30 19 0 11 6 21 13 24 22
7 47 -5 47 -24z m70 -109 c0 -17 -7 -20 -45 -20 -38 0 -45 3 -45 20 0 17 7 20
45 20 38 0 45 -3 45 -20z"/>
<path d="M1388 1315 c-2 -60 1 -120 6 -132 l9 -22 52 30 c60 34 65 35 65 12 0
-9 3 -13 7 -10 3 4 13 1 22 -7 20 -17 63 -27 78 -18 9 6 10 33 4 82 -1 2 -8
-6 -17 -18 -12 -18 -19 -20 -35 -12 -11 6 -17 15 -14 20 4 6 -1 7 -11 3 -13
-5 -16 -3 -11 10 3 8 1 18 -6 21 -7 2 -1 5 13 5 39 2 45 11 48 79 2 45 -1 62
-10 63 -7 0 -54 1 -105 2 l-92 2 -3 -110z m162 65 c0 -18 -7 -20 -60 -20 -53
0 -60 2 -60 20 0 18 7 20 60 20 53 0 60 -2 60 -20z m-70 -61 c0 -15 -5 -20
-22 -17 -34 5 -37 38 -4 38 20 0 26 -5 26 -21z m80 10 c0 -5 5 -7 11 -3 7 4
10 1 7 -7 -7 -21 -51 -18 -54 4 -1 11 4 17 17 17 10 0 19 -5 19 -11z m-70 -59
c0 -5 0 -13 -1 -16 0 -4 5 -11 13 -15 10 -6 8 -9 -7 -9 -11 0 -30 -3 -42 -6
-20 -6 -23 -3 -23 25 0 28 3 31 30 31 17 0 30 -4 30 -10z"/>
<path d="M1896 1412 c-5 -14 -13 -18 -26 -15 -18 5 -20 0 -20 -50 0 -48 -3
-56 -22 -63 -17 -6 -5 -9 45 -11 40 -2 65 -8 62 -14 -4 -5 -11 -7 -16 -4 -5 4
-9 1 -9 -5 0 -6 -25 -22 -56 -36 -31 -14 -54 -27 -51 -30 8 -9 141 36 149 49
5 7 8 3 8 -10 0 -16 -6 -23 -20 -23 l-20 0 20 -20 c21 -21 45 -26 54 -12 3 5
6 30 7 56 2 39 8 51 31 67 36 26 35 38 -3 46 -24 5 -30 10 -25 26 5 22 -19 54
-29 37 -11 -17 -43 -12 -41 7 2 25 -31 28 -38 5z m64 -43 c0 -4 -17 -7 -37 -7
-25 0 -31 3 -20 7 24 9 57 9 57 0z m0 -39 c0 -6 -16 -10 -35 -8 -19 1 -35 6
-35 10 0 4 16 8 35 8 19 0 35 -5 35 -10z m0 -34 c0 -10 -10 -14 -32 -12 -45 3
-49 26 -4 26 24 0 36 -5 36 -14z"/>
<path d="M2267 1423 c-4 -3 -7 -14 -7 -23 0 -9 -11 -38 -24 -63 -16 -33 -19
-47 -10 -47 7 0 14 6 17 13 2 6 4 -22 3 -63 l-1 -75 32 -2 c18 0 37 5 44 13
16 20 36 17 49 -5 6 -13 17 -17 29 -14 23 6 55 49 46 62 -3 5 0 22 6 37 8 23
12 26 21 14 8 -13 9 -12 5 1 -3 9 0 22 6 28 9 10 8 15 -5 25 -10 7 -14 17 -10
21 4 5 1 5 -6 1 -17 -10 -44 19 -46 49 -1 33 -26 32 -26 0 0 -25 -1 -25 -25
-9 -30 19 -27 22 -49 -38 -10 -27 -22 -48 -27 -48 -13 0 -1 60 18 89 12 20 13
25 2 32 -17 10 -33 11 -42 2z m124 -77 c5 3 9 1 9 -5 0 -5 3 -18 6 -28 5 -15
4 -15 -5 -3 -7 10 -11 11 -11 3 0 -7 -11 -13 -25 -13 -14 0 -25 4 -25 10 0 15
34 52 38 40 2 -5 8 -8 13 -4z m-64 -102 c-3 -19 -13 -41 -21 -50 -15 -14 -16
-11 -16 28 0 44 15 72 33 61 5 -3 7 -21 4 -39z m66 29 c-7 -2 -13 -9 -13 -14
0 -6 5 -7 10 -4 6 3 10 -5 10 -19 0 -25 -19 -48 -21 -24 0 10 -2 10 -6 1 -2
-7 -9 -13 -14 -13 -5 0 -5 9 0 23 5 12 12 30 15 40 3 9 11 17 18 16 10 0 10
-2 1 -6z"/>
<path d="M2666 1408 c11 -38 25 -50 40 -37 20 16 17 37 -5 49 -32 16 -43 12
-35 -12z"/>
<path d="M2856 1409 c-10 -6 -41 -9 -72 -6 -30 3 -54 1 -54 -3 0 -5 17 -10 38
-12 l37 -3 1 -62 c1 -35 -3 -63 -8 -63 -6 0 -8 22 -6 50 3 46 1 50 -19 50 -20
0 -23 -5 -23 -43 0 -31 -5 -45 -20 -55 -19 -12 -20 -10 -20 38 0 53 -9 60 -55
40 -18 -8 -18 -9 -2 -9 16 -1 18 -9 15 -63 -3 -89 7 -100 48 -52 l33 39 1 -34
c0 -28 -3 -33 -20 -28 -13 3 -20 0 -20 -9 0 -11 21 -14 99 -14 100 0 123 7 96
30 -12 10 -18 10 -30 0 -19 -16 -26 -10 -27 26 -1 60 1 64 32 64 34 0 39 14
11 30 -15 7 -22 7 -27 -2 -6 -9 -10 -5 -14 12 -11 42 -1 60 32 60 19 0 28 4
26 13 -6 16 -29 19 -52 6z m-46 -190 c0 -17 -5 -29 -11 -27 -6 2 -10 7 -10 11
1 4 1 16 1 27 0 11 5 20 10 20 6 0 10 -14 10 -31z"/>
<path d="M2221 1044 c0 -11 3 -14 6 -6 3 7 2 16 -1 19 -3 4 -6 -2 -5 -13z"/>
<path d="M2159 993 c0 -5 -2 -19 -4 -33 -4 -33 23 -64 42 -49 10 9 10 15 2 25
-6 8 -9 23 -6 33 3 12 -1 22 -10 25 -19 8 -23 7 -24 -1z"/>
<path d="M2084 965 c1 -33 16 -33 16 0 0 14 -4 25 -9 25 -5 0 -8 -11 -7 -25z"/>
<path d="M2218 983 c7 -3 16 -2 19 1 4 3 -2 6 -13 5 -11 0 -14 -3 -6 -6z"/>
<path d="M2210 950 c0 -5 7 -10 15 -10 8 0 15 5 15 10 0 6 -7 10 -15 10 -8 0
-15 -4 -15 -10z"/>
<path d="M2231 914 c0 -11 3 -14 6 -6 3 7 2 16 -1 19 -3 4 -6 -2 -5 -13z"/>
<path d="M2225 880 c-3 -5 -1 -10 4 -10 6 0 11 5 11 10 0 6 -2 10 -4 10 -3 0
-8 -4 -11 -10z"/>
<path d="M1960 811 c0 -5 5 -13 10 -16 6 -3 10 -2 10 4 0 5 -4 13 -10 16 -5 3
-10 2 -10 -4z"/>
<path d="M992 671 c2 -8 -11 -14 -37 -15 -21 -2 -41 -9 -43 -15 -3 -8 -9 -6
-18 6 -12 16 -15 16 -24 3 -7 -11 -10 -12 -10 -2 0 23 -45 9 -48 -15 -3 -23
32 -51 43 -34 3 6 14 8 25 6 11 -2 20 2 20 8 0 9 2 9 8 1 7 -11 32 -18 59 -15
6 0 14 11 16 24 l4 22 2 -22 c1 -27 27 -31 34 -5 4 16 5 16 6 0 1 -21 56 -26
64 -5 3 7 6 5 6 -5 1 -19 29 -14 43 6 5 7 8 7 8 -1 0 -7 5 -13 10 -13 6 0 10
13 10 28 0 28 -1 29 -57 30 -84 2 -97 4 -111 15 -9 7 -12 7 -10 -2z"/>
<path d="M673 662 c-13 -2 -23 -8 -23 -14 0 -7 -4 -7 -12 0 -14 11 -122 11
-133 0 -4 -4 -4 -15 -1 -25 5 -17 18 -20 94 -21 85 -2 89 -2 102 23 16 29 6
43 -27 37z m-133 -26 c0 -3 -4 -8 -10 -11 -5 -3 -10 -1 -10 4 0 6 5 11 10 11
6 0 10 -2 10 -4z"/>
<path d="M721 642 c-16 -30 -14 -39 12 -37 22 2 24 14 7 44 -6 11 -10 10 -19
-7z"/>
<path d="M750 650 c0 -5 5 -10 10 -10 6 0 10 -10 10 -22 0 -27 5 -21 14 15 5
23 3 27 -14 27 -11 0 -20 -4 -20 -10z"/>
<path d="M794 535 c-16 -13 -17 -16 -4 -25 9 -6 10 -10 3 -10 -7 0 -10 -11 -9
-27 3 -25 7 -28 41 -28 24 0 40 5 43 14 3 9 0 11 -9 5 -11 -6 -11 -4 1 12 8
10 15 21 17 23 1 1 7 0 13 -4 8 -5 8 -11 -1 -21 -16 -19 -6 -27 33 -26 17 0
40 -4 51 -9 16 -9 17 -8 9 8 -5 10 -8 34 -7 54 1 21 -2 36 -9 36 -6 0 -19 4
-28 8 -10 4 -18 3 -18 -2 0 -5 -17 -10 -37 -11 -28 -2 -34 0 -23 8 19 12 0 13
-20 0 -9 -5 -17 -5 -20 1 -4 5 -14 3 -26 -6z m93 -21 c-3 -3 -12 -4 -19 -1 -8
3 -5 6 6 6 11 1 17 -2 13 -5z"/>
<path d="M1115 534 c-17 -13 -18 -16 -5 -24 13 -8 12 -10 -3 -10 -10 0 -15 -4
-12 -10 3 -6 -1 -7 -10 -4 -8 4 -15 11 -14 18 3 27 -2 36 -21 36 -11 0 -20 -6
-20 -12 0 -9 -4 -8 -10 2 -9 13 -11 13 -19 1 -5 -8 -7 -21 -3 -29 3 -10 1 -13
-7 -8 -17 11 -10 -14 11 -38 14 -16 20 -17 33 -6 13 11 14 10 8 -6 -6 -17 -5
-17 10 -5 9 7 17 10 17 5 0 -5 7 0 15 10 15 19 15 19 15 -5 0 -17 3 -20 9 -11
4 8 11 13 15 13 20 -3 26 0 20 12 -6 10 -4 10 7 0 15 -15 39 -17 39 -4 0 5 -8
12 -17 14 -17 4 -17 5 0 6 9 0 17 6 17 11 0 6 -8 10 -17 11 -12 1 -9 4 7 8
l25 7 -23 13 c-12 6 -26 9 -31 6 -5 -3 -11 -1 -13 4 -1 5 -12 3 -23 -5z"/>
<path d="M1510 543 c0 -8 -24 -11 -67 -11 -38 1 -81 0 -98 -1 -25 -1 -27 -3
-12 -12 11 -6 17 -22 17 -44 0 -19 5 -37 10 -40 6 -3 10 -1 10 4 0 13 42 10
51 -3 12 -16 29 5 29 35 0 16 5 29 10 29 6 0 10 -7 10 -16 0 -11 6 -15 19 -11
21 5 37 -18 20 -28 -5 -4 -7 -11 -3 -16 8 -14 24 0 24 22 0 12 7 19 20 19 16
0 20 7 20 30 0 22 -5 30 -18 30 -10 0 -23 5 -30 12 -9 9 -12 9 -12 1z m50 -41
c0 -5 -16 -9 -35 -10 -19 -1 -35 2 -35 6 0 4 16 9 35 10 19 2 35 -1 35 -6z"/>
<path d="M2115 540 c6 -10 4 -12 -8 -7 -11 4 -20 -1 -27 -13 -13 -25 -38 -26
-36 -2 1 12 -8 18 -28 20 -37 5 -84 -7 -68 -17 7 -4 10 -23 7 -51 -5 -42 -4
-44 10 -26 8 11 15 14 15 8 0 -7 8 -12 18 -12 10 0 23 -5 30 -12 9 -9 15 -3
27 25 18 45 35 48 35 7 0 -16 5 -30 10 -30 6 0 10 5 10 12 0 6 7 4 18 -5 21
-19 32 -13 32 15 0 13 4 17 13 12 8 -5 8 -2 -2 9 -8 10 -9 17 -3 17 6 0 19 3
29 6 13 4 14 3 5 -4 -8 -5 -12 -22 -10 -37 3 -26 7 -29 41 -30 25 0 42 5 48
15 8 13 10 13 19 0 5 -8 10 -10 10 -4 0 5 -5 15 -12 22 -9 9 -9 12 1 12 7 0 9
5 5 11 -4 7 1 7 15 -1 18 -9 20 -14 10 -26 -6 -8 -9 -18 -5 -22 4 -4 19 7 32
23 18 23 24 26 24 13 0 -10 -4 -18 -10 -18 -5 0 -10 -4 -10 -10 0 -20 29 -10
36 13 4 12 11 25 17 29 6 4 4 12 -6 23 -10 9 -17 21 -17 26 0 17 -33 9 -58
-13 -17 -16 -26 -19 -29 -10 -3 6 -9 10 -14 6 -5 -3 -9 2 -9 12 0 13 -6 15
-36 9 -20 -3 -44 -14 -53 -23 -14 -14 -16 -14 -19 0 -2 9 -11 19 -20 22 -9 3
-23 9 -31 12 -9 5 -11 3 -6 -6z m258 -23 c3 -8 -3 -14 -15 -14 -16 -2 -17 1
-8 13 15 17 17 17 23 1z m-153 -51 c0 -3 -4 -8 -10 -11 -5 -3 -10 -1 -10 4 0
6 5 11 10 11 6 0 10 -2 10 -4z"/>
<path d="M1620 531 c0 -6 -8 -11 -17 -12 -12 -1 -10 -4 7 -9 17 -5 19 -8 8 -9
-13 -1 -18 -9 -18 -31 0 -38 17 -39 23 -2 4 25 4 25 6 -5 1 -40 20 -44 22 -5
2 23 2 24 6 5 7 -37 26 -27 21 11 -2 19 -1 34 2 33 3 -1 7 2 10 7 3 5 -2 10
-10 12 -8 2 -25 6 -37 10 -14 4 -23 2 -23 -5z"/>
<path d="M1740 530 c0 -6 -5 -8 -12 -4 -7 4 -8 3 -4 -4 4 -6 -1 -23 -10 -37
-13 -20 -13 -24 -2 -20 21 8 51 62 38 70 -5 3 -10 1 -10 -5z"/>
<path d="M1770 530 c0 -19 28 -60 41 -60 15 0 10 13 -16 45 -16 19 -25 24 -25
15z"/>
<path d="M1853 529 c-16 -6 -23 -17 -23 -34 0 -15 3 -24 8 -22 4 3 13 -1 20
-9 10 -12 10 -14 -2 -14 -8 0 -18 -4 -21 -10 -3 -6 9 -9 32 -8 21 1 44 0 52
-3 7 -2 16 2 18 9 3 6 -2 12 -11 12 -9 0 -16 8 -16 17 0 13 3 14 12 5 19 -19
30 -14 18 8 -8 14 -8 20 0 20 19 0 -13 26 -40 32 -14 4 -35 2 -47 -3z m17 -23
c0 -3 -4 -8 -10 -11 -5 -3 -10 -1 -10 4 0 6 5 11 10 11 6 0 10 -2 10 -4z"/>
<path d="M2440 501 c0 -22 -3 -48 -6 -58 -4 -13 0 -11 15 7 12 14 20 19 19 11
-4 -17 51 -34 67 -21 13 11 13 38 1 59 -5 8 -4 16 4 21 17 10 -12 20 -61 20
-39 0 -39 0 -39 -39z m77 -43 c-3 -8 -6 -5 -6 6 -1 11 2 17 5 13 3 -3 4 -12 1
-19z"/>
<path d="M1742 475 c-17 -38 -15 -42 23 -41 36 1 39 4 29 31 -6 14 -8 14 -27
-2 -19 -18 -20 -17 -8 4 13 26 14 33 3 33 -5 0 -14 -11 -20 -25z"/>
<path d="M2161 417 c-13 -21 -12 -21 5 -5 10 10 16 20 13 22 -3 3 -11 -5 -18
-17z"/>
<path d="M1050 399 c-9 -20 -16 -26 -20 -18 -5 6 -15 9 -24 6 -10 -4 -16 -1
-16 9 0 11 -4 12 -19 4 -11 -5 -36 -10 -55 -10 -22 0 -36 -5 -36 -12 0 -10 -3
-10 -9 0 -12 20 -46 10 -46 -13 0 -17 8 -20 60 -23 71 -3 89 -8 79 -23 -4 -8
-3 -9 5 -5 6 4 9 12 6 17 -6 9 34 13 114 11 26 -1 48 3 53 11 6 9 8 9 8 0 0
-7 5 -13 10 -13 6 0 10 10 10 23 0 20 -5 23 -52 25 -59 3 -66 6 -48 27 7 8 8
15 2 15 -5 0 -15 -14 -22 -31z"/>
<path d="M507 394 c-4 -4 -7 -18 -7 -31 0 -22 4 -23 61 -23 52 0 60 2 50 14
-9 10 -9 16 -1 21 7 4 14 -2 17 -14 5 -21 23 -30 23 -12 0 5 3 17 7 27 5 13 3
16 -9 12 -8 -4 -20 -3 -27 1 -6 4 -32 5 -56 1 -24 -4 -46 -3 -47 2 -2 5 -7 6
-11 2z m83 -24 c0 -5 -2 -10 -4 -10 -3 0 -8 5 -11 10 -3 6 -1 10 4 10 6 0 11
-4 11 -10z"/>
<path d="M666 374 c-11 -28 -7 -30 68 -32 65 -1 74 0 71 16 -2 9 -4 21 -4 25
-2 14 -62 2 -71 -13 -8 -13 -10 -12 -10 3 0 9 -5 17 -11 17 -5 0 -7 -6 -3 -12
6 -10 4 -10 -7 0 -17 16 -26 15 -33 -4z m119 -4 c3 -5 1 -10 -4 -10 -6 0 -11
5 -11 10 0 6 2 10 4 10 3 0 8 -4 11 -10z"/>
<path d="M2080 319 c0 -5 5 -7 10 -4 6 3 10 8 10 11 0 2 -4 4 -10 4 -5 0 -10
-5 -10 -11z"/>
<path d="M2055 299 c-4 -6 -13 -8 -21 -5 -7 3 -16 1 -19 -4 -3 -4 6 -7 20 -5
31 3 43 -11 15 -18 -27 -7 -27 -37 0 -32 12 2 18 0 15 -6 -4 -5 -10 -7 -14 -4
-5 2 -13 -7 -19 -20 -14 -30 -9 -33 48 -31 59 3 70 10 70 51 0 37 -20 51 -51
35 -13 -7 -19 -7 -19 0 0 5 6 10 13 11 6 0 2 4 -11 10 -13 5 -20 13 -17 19 3
5 4 10 1 10 -3 0 -8 -5 -11 -11z m75 -83 c-14 -14 -24 0 -16 21 6 15 8 15 16
3 6 -9 5 -19 0 -24z m-43 -4 c0 -10 -9 -19 -18 -19 -17 -2 -17 -1 -1 17 22 23
21 23 19 2z"/>
<path d="M793 273 c-27 -5 -31 -23 -5 -23 16 -1 16 -1 0 -11 -17 -9 -17 -12
-1 -35 12 -19 18 -22 25 -12 8 10 11 10 15 1 11 -29 31 -12 35 30 3 23 4 42 4
43 -4 5 -56 10 -73 7z"/>
<path d="M888 261 c-16 -16 -16 -19 -2 -39 8 -12 11 -22 5 -22 -6 0 -11 -5
-11 -11 0 -6 9 -8 21 -4 16 5 19 4 14 -5 -6 -9 -3 -10 10 -3 10 6 26 8 36 6
11 -3 19 0 19 6 0 6 -4 11 -10 11 -6 0 -6 9 0 26 8 19 6 29 -6 41 -13 14 -17
14 -26 2 -7 -11 -11 -11 -15 -1 -6 16 -14 15 -35 -7z"/>
<path d="M995 272 c-3 -3 -2 -16 2 -30 4 -16 2 -23 -4 -19 -6 4 -8 -3 -6 -18
3 -13 11 -26 19 -29 9 -3 11 0 7 12 -5 14 -3 15 8 5 7 -7 23 -13 35 -13 25 0
30 11 30 60 -1 34 -2 35 -44 36 -23 0 -44 -2 -47 -4z"/>
<path d="M1100 227 c0 -41 2 -48 14 -38 8 7 17 8 20 3 3 -5 16 -9 29 -9 21 0
24 4 26 43 0 24 -2 45 -6 45 -5 1 -25 2 -45 3 l-38 2 0 -49z"/>
<path d="M1833 268 c-13 -6 -23 -17 -23 -25 0 -16 12 -17 28 -1 20 20 13 -1
-7 -24 -22 -23 -18 -48 7 -43 9 2 19 4 22 4 3 1 11 10 18 22 8 12 9 18 3 14
-7 -4 -11 4 -11 19 0 14 -5 26 -11 26 -5 0 -7 5 -4 10 7 12 7 12 -22 -2z m17
-68 c0 -5 -4 -10 -10 -10 -5 0 -10 5 -10 10 0 6 5 10 10 10 6 0 10 -4 10 -10z"/>
<path d="M2243 273 c-7 -3 -13 -14 -13 -25 0 -17 3 -18 15 -8 9 8 15 9 15 2 0
-6 -5 -14 -11 -17 -6 -5 -4 -12 8 -21 13 -9 14 -13 4 -14 -8 0 -20 8 -27 18
-13 16 -13 16 -14 0 0 -12 -8 -18 -22 -18 l-22 0 22 16 c30 20 26 59 -5 60
-12 1 -25 -6 -28 -14 -8 -21 2 -27 20 -12 10 8 15 9 15 1 0 -6 -9 -16 -20 -23
-29 -18 -26 -48 4 -48 14 0 28 5 31 10 4 7 13 7 26 0 11 -6 25 -8 31 -4 16 10
58 11 64 2 10 -16 35 -7 46 17 8 18 8 31 0 49 -19 41 -62 19 -62 -31 0 -31
-26 -29 -34 2 -4 14 -5 29 -2 33 6 11 -26 30 -41 25z m127 -59 c0 -15 -6 -24
-15 -24 -15 0 -21 40 -9 53 12 11 24 -3 24 -29z"/>
<path d="M1357 263 c-4 -3 -7 -13 -7 -21 0 -12 3 -12 15 -2 28 23 27 2 -1 -24
-30 -27 -27 -38 11 -43 17 -3 25 1 25 11 0 10 -6 13 -17 9 -15 -5 -15 -3 2 14
19 19 20 19 23 1 4 -21 37 -42 52 -33 15 10 12 71 -5 85 -12 10 -18 10 -30 0
-12 -10 -19 -10 -27 -2 -13 13 -31 15 -41 5z m99 -28 c8 -20 -16 -51 -26 -34
-9 14 -1 49 11 49 6 0 12 -7 15 -15z"/>
<path d="M1553 254 c-4 -11 2 -22 17 -34 17 -12 19 -19 10 -25 -7 -4 -16 -2
-21 6 -4 7 -11 10 -15 6 -9 -9 15 -37 32 -37 20 0 31 31 25 65 -7 33 -37 46
-48 19z m27 -14 c0 -5 -5 -10 -11 -10 -5 0 -7 5 -4 10 3 6 8 10 11 10 2 0 4
-4 4 -10z"/>
<path d="M1650 251 c-14 -28 -12 -56 5 -71 22 -18 43 -5 53 31 4 18 14 35 21
37 13 4 11 -9 -6 -55 -3 -7 -1 -13 4 -13 8 0 43 67 43 83 0 11 -48 8 -55 -3
-4 -7 -12 -7 -25 0 -25 14 -28 13 -40 -9z m40 -31 c0 -10 -5 -22 -10 -25 -13
-8 -24 20 -16 41 8 20 26 9 26 -16z"/>
<path d="M1896 249 c-17 -17 -18 -19 -3 -19 11 0 17 -8 17 -25 0 -14 5 -25 10
-25 12 0 14 77 3 83 -5 3 -17 -4 -27 -14z"/>
<path d="M2394 258 c-3 -5 5 -8 18 -8 13 0 19 -4 13 -8 -5 -4 -11 -11 -12 -17
-1 -5 -4 -17 -8 -26 -4 -10 0 -19 10 -23 9 -3 13 -2 10 4 -3 5 1 23 10 39 8
17 15 35 15 40 0 12 -49 11 -56 -1z"/>
<path d="M2503 254 c-4 -11 1 -23 16 -35 13 -11 17 -20 11 -24 -6 -4 -17 -1
-25 5 -9 7 -15 8 -15 2 0 -17 27 -33 44 -26 24 9 18 87 -7 92 -9 2 -20 -4 -24
-14z m27 -14 c0 -5 -5 -10 -11 -10 -5 0 -7 5 -4 10 3 6 8 10 11 10 2 0 4 -4 4
-10z"/>
<path d="M2584 259 c-20 -25 -28 -42 -17 -36 6 4 13 -7 17 -26 6 -26 9 -29 16
-15 6 9 7 32 2 53 -6 30 -10 35 -18 24z"/>
<path d="M1495 251 c-3 -5 -1 -12 4 -15 5 -3 7 -15 4 -25 -3 -10 0 -22 6 -25
7 -5 11 7 11 33 0 38 -11 53 -25 32z"/>
<path d="M1950 210 c0 -5 14 -10 30 -10 17 0 30 5 30 10 0 6 -13 10 -30 10
-16 0 -30 -4 -30 -10z"/>
<path d="M1785 190 c-3 -5 -1 -10 4 -10 6 0 11 5 11 10 0 6 -2 10 -4 10 -3 0
-8 -4 -11 -10z"/>
<path d="M1610 186 c0 -2 7 -9 15 -16 13 -11 14 -10 9 4 -5 14 -24 23 -24 12z"/>
<path d="M2465 180 c3 -5 8 -10 11 -10 2 0 4 5 4 10 0 6 -5 10 -11 10 -5 0 -7
-4 -4 -10z"/>
</g>
</svg>
